<?xml version="1.0" encoding="UTF-8"?><svg id="_レイヤー_1" xmlns="http://www.w3.org/2000/svg" viewBox="0 0 402.83 424.45"><path d="m70.9,136c.89-1.16,2.26-1.37,3.53-1.75,5.3-1.61,10.77-2.7,15.86-4.91,2.42-1.05,4.79-1.69,7.43-1.51,1.69.12,3.14-.41,3.57-2.35.01-.06,0-.14.04-.17,2.12-1.49,2.41-3.57,2.19-5.97-.08-.83.73-1.43,1.74-1.24,2.23.43,4.47.81,6.69,1.31,1.05.24,1.88.92,2.43,1.88.6,1.04,1.43,1.82,2.5,2.36.31.16.68.46.95.39,2.04-.5,3.92-.91,5.93.53.72.51,1.84-.74,2-1.92.43-3.25,3.33-4.07,5.49-5.62.41-.29.78.04,1.04.38.98,1.3,1.89.9,2.66-.18.79-1.11,1.53-2.12,1.5-3.73-.03-1.55,1.04-3.04,1.31-4.67.24-1.45.31-2.76-.39-4.21-.88-1.81-1.31-3.85-1.9-5.8-.21-.67-.36-1.39.3-1.94.62-.52,1.27-.41,1.96-.09.77.35,1.61.89,2.3-.18.23-.35.5-.12.75,0,.36.19.75.35,1.07.59,2.21,1.65,4.38,2.43,6.54-.1.24-.28.71-.53,1.07-.54,1.97-.03,3.37-.63,4.15-2.69.38-1.01,1.8-.88,2.86-.85,3.74.1,7.31-.73,10.8-1.97,2.27-.81,2-.96,1.15-3.03-.76-1.85-1.54-3.39-3.17-4.61-.9-.67-.35-1.88.19-2.73.94-1.49,1.26-2.83.19-4.51-1.06-1.68-.05-3.29,1.06-4.59,1.1-1.29,2.22-2.52,3.02-4.06.79-1.52,2.39-1.56,3.85-1.56,1.51,0,3.02.22,4.53.32,1.4.09,2.69.42,3.38,1.79.4.79.88.54,1.43.27,1.62-.79,2.75-2.87,2.44-4.66-.15-.86-.42-1.7-.71-2.52-.44-1.25-1.35-2.32-.69-3.88.35-.84-.4-1.79-.86-2.59-2.88-4.96-3.91-10.19-2.58-15.84.29-1.24.39-2.49.21-3.81-.39-2.89,1.19-4.03,3.9-2.93,2.81,1.14,5.46.83,7.99-.83.73-.48,1.48-.93,2.23-1.38,1.47-.89,2.92-.85,4.46-.07,3.08,1.54,6.81-.08,8.01-3.31.7-1.88,2.4-2.81,3.99-3.79.79-.48,1.66-.85,2.54-1.15,4.05-1.35,5.71-3.6,6.04-8.8.14-2.27-.15-4.57.2-6.84.12-.74.25-1.5.49-2.21.88-2.66,1.19-2.67,3.82-1.9,1.49.43,2.71.8,3.04,2.51.06.3.38.73.64.77,3.47.64,3.46,3.8,4.3,6.18.63,1.79,1.49,3.11,3.18,3.88,1.35.62,2.32,1.5,2.61,3.06.13.68.61,1.2,1.19,1.67,1.32,1.08,2.69,2.08,4.21,2.83,1.28.64,2.5,1.26,2.8,2.85.04.21.21.47.39.56,1.98,1.05,1.5,2.56,1.1,4.32-.64,2.81-1.05,5.72.65,8.4.3.48.51,1.22,1.25.99,1.75-.53,3.23.32,4.71.91,1.74.69,3.24.51,4.86-.33,3.05-1.6,3.9-1.33,5.73,1.53.28.44.55.9.83,1.34,1.46,2.25,1.45,2.3-.48,4.22-.58.57-1.34,1.14.06,1.72.2.08.18.67.5,1.01,1.8,1.88,2.97,1.96,5.98.25.98-.56,1.76-1.31,2.46-2.2.72-.92,1.47-.99,2.18.19,1.36,2.27,2.69,2.64,5.14,1.75,1.27-.47,2.4-.1,3.22,1.04-.67,1.39-.25,2.36,1.14,2.95.21.09.45.15.63.27,2.14,1.47,2.13,1.47,3.89-.55.97-1.11,2.26-.57,3.27-.28,1.44.41,2.64.45,3.86-.49.75-.58,1.55-.45,2.13.34.45.6.93,1.2,1.24,1.88,1.13,2.43,1.78,2.8,4.31,1.75,2.11-.88,3.89-.71,5.62.82.95.84,2.09,1.33,3.43,1.48,1.9.21,2.35,1.59,1.11,3.08-1.08,1.3-2.67,1.85-4.09,2.6-2,1.06-3.06,2.5-2.93,4.85.12,2.13-.76,2.99-2.9,2.94-1.25-.03-1.54.24-1.36,1.56.32,2.28.06,4.52-1.47,6.47-.92,1.17-.53,2.16.97,2.52,1.5.36,2.68.83,3.09,2.58.24,1.03,1.39,1.36,2.37,1.57,1.66.37,3.26.91,4.66,1.88.79.54,1.57.33,2.36.31,1.43-.03,2.76.24,3.39,1.65.66,1.5-.26,2.64-1.35,3.47-1.59,1.21-2.85,2.5-2.88,4.67-.01.88-.74,1.26-1.57,1.38-.64.09-1.25.22-1.8.6-.99.69-1.89,1.22-1.43,2.83.42,1.48.04,3.04-1.64,3.77,0,.77.91.19.96.79-.38.51-.81,1-1.47,1.16-1.38.33-2.4.91-2.78,2.48-.33,1.38-1.72.5-2.58.85-.03.53.05,1.13-.12,1.64-.42,1.23-.62,2.33.52,3.34.28.24.25.87.3,1.33.29,2.99.82,3.73,3.67,4.11,1.18.16,1.34.76,1.02,1.46-1.25,2.71-1.66,5.55-1.63,8.49.01,1.21-1.36,1.61-1.53,2.65-.52,3.21-2.99,4.99-5.05,7.07-.44.45-.98.79-1.47,1.2-.44.36-.8.97-.57,1.37.75,1.29-.51,2.75.43,3.99.1.13.02.5-.1.65-1.8,2.2-1.45,5.2-2.84,7.59-.83,1.43-.45,3.23-.3,4.84.15,1.65.08,3.26-.11,4.88-.28,2.36.08,2.89,2.34,2.98,1.77.07,3.08.41,3.83,2.39,1,2.65,3.27,3.81,6.1,3.78.88,0,1.76.06,2.64-.01,2.18-.18,3.86.65,5.13,2.4.7.97,1.66,1.39,2.85,1.3.7-.05,1.3-.28,1.15-1.15-.22-1.25.44-1.3,1.32-.98,1.46.53,2.97,1,4.34,1.71,2.07,1.06,3.86.81,5.47-.79.9-.89,1.89-1.11,2.96-.5.82.47,1.66.48,2.54.48,2.9.01,4.63,1.33,5.27,4.11.37,1.62.89,3.06,2.3,4.15,1.32,1.02.42,2.18-.31,3.01-.98,1.11-2.02,2.07-1.83,3.76.06.54-.46.98-.98,1.11-1.65.4-2.44,1.62-3.1,3.04-.93,2.01-2.19,3.34-4.86,2.29-1.06-.42-1.48.33-1.72,1.17-.44,1.56,0,3.35-1.38,4.69-.34.32-.04.99.46,1.35,1.16.82.97,1.85.42,2.94-1.31,2.6-3.21,4.8-4.91,7.14-.44.61-.9,1.2-1.3,1.84-1.31,2.1-.99,3.3,1.32,4.4.68.32.6.78.71,1.24.51,2.09.98,4.19,1.46,6.29.21-.04.35-.02.42-.08.5-.46,1.01-1.32,1.67-.96.66.36.17,1.27.05,1.92-.54,2.8-1.94,4.37-4.06,4.61-.4.04-.87.2-1.17-.15-.52-.59-.8-1.38-1.89-.56-.94.71-1.55,1.23-1.01,2.51.21.5.31,1.29-.32,1.78-1.36,1.06-1.79,2.59-2.16,4.16-.11.45-.33.76-.82.74-1.21-.05-1.69.8-1.86,1.72-.4,2.27-1.73,3.9-3.36,5.36-1.59,1.43-2.69,3.04-2.54,5.31.05.83-.36,1.58-.98,2.17-1.02.97-1.71,2.17-2.42,3.37-.82,1.38-1.75,2.7.14,4.01.49.34.44,1.08.45,1.64.05,1.88.89,3.28,2.25,4.54,1.92,1.78,3.83,3.6,5.15,5.9.47.82,1.18,1.4,1.98,1.59,2.12.49,3.59,2.26,5.75,2.71,1.2.25,3.12,3.81,3.01,5.08-.11,1.35-.91,1.4-1.78.74-.93-.71-.99-.22-1.11.56-.24,1.6-.07,3.22,1.35,4.06,2.11,1.24,2.69,3.23,3.28,5.31.22.77.38,1.43,1.51.93,1.03-.45,1.88.32,1.94,1.19.13,1.8,1.24,1.98,2.54,1.84,2.26-.25,3.74,1.03,5.15,2.45.7.7,1.11,1.51-.39,1.82-.48.1-.7.39-.69.86.01.49.36.67.74.86.4.2.61.32.93-.24.6-1.05,1.64-.83,2.41-.3.91.63,1.51.74,2.44-.04.65-.54,1.6-1.15,2.6-.18.68.66,1.14-.38,1.52-.64,1.17-.77,2.14-1.53,3.72-1.11.94.25,1.89-.44,2.72-.99,1.76-1.18,3.25-1.22,4.91.05,1.32,1.01,2.66,1.55,4.37,1.2,1.72-.35,2.76.34,3.41,2.13.47,1.32,1.16,2.3,3.36,2.28,3.11-.02,6.16-1.16,9.34-.33,1.5.39,3.26.03,4.43-1.43.17-.22.41-.43.67-.52,1.39-.5,5.87.8,6.78,1.99.36.47.57.97,1.33.8.55-.12.89.21.91.78.02.5-.17.84-.67,1.1-2.36,1.21-2.5,1.73-1.29,4.16.72,1.46,1.51,2.89,1.96,4.46.2.68.36.99,1.14.46.57-.4,1.29-.18,1.95.19,2.59,1.46,3.28,2.83,2.66,5.68-.31,1.46.3,2.6,1.05,3.74.24.36.73.74.21,1.21-.56.51-.54-.3-.82-.44-1.65-.82-3.32-.07-3.61,1.73-.14.86-.56,1.76-.19,2.59.74,1.66-.16,1.88-1.47,1.95-1.04.06-2.08.23-3.12.34-1.13.12-1.97.36-2.43,1.72-.58,1.72-3.06,1.72-4.68,0-1.6-1.71-3.08-3.56-4.5-5.44-.78-1.03-1.54-1.46-2.87-1.15-5.33,1.26-10.44,3.13-15.38,5.46-2.75,1.29-5.49,1.71-8.46.86-2.33-.67-4.72-.58-7.09-.01-3.09.74-6.24.94-9.4.83-2.31-.08-4.07-1.35-5.8-2.72-4.42-3.49-8.9-6.89-13.27-10.45-2.8-2.28-5.43-4.77-7.48-7.81-2.03-3.02-5.23-3.64-8.46-3.33-1.22.12-2.76,1.45-3.48,2.46-2.48,3.52-5.85,3.45-9.44,3.15-1.61-.14-3.08-.54-4.2-1.84-.75-.87-1.87-1.06-2.95-1.28-1.63-.35-3.29-.65-4.6-1.79-.61-.53-.92-.3-1.18.28-.18.42-.38.85-.46,1.3-.19,1.09-.6,1.33-1.57.64-.44-.31-1.13-.47-1.66-.39-3.07.47-5.52-.8-7.9-2.52-1.59-1.15-3.17-2.5-5.41-2.09-.32.06-.59.15-.77-.38-.59-1.67-1.97-2.01-3.56-1.9-1.92.13-3.58-.46-4.74-2.04-.98-1.35-2.45-1.5-3.86-1.78-.96-.19-2.03-.28-2.66-.98-1.45-1.61-3.32-1.39-5.16-1.56-2.03-.19-4.18.67-6.08-.76-.45-.33-.69.33-.86.62-1.17,1.99-2.81,3.57-4.44,5.16-.91.88-1.47,1.84-.71,3.06.44.7-.12,1.11-.35,1.58-2.33,4.81-4.97,9.45-7.74,14.01-.72,1.19-1.41,2.39-2.05,3.63-.58,1.13-1.44,1.92-2.52,2.56-1.77,1.06-2.25,2.2-1.56,4.11.44,1.21.25,1.95-.99,2.25-1.15.27-1.4,1.04-1.42,2.05-.04,2.58.4,5.1,1.06,7.59.18.7.21,1.39.16,2.09-.06.77-.44,1.22-1.31,1.34-1.09.15-2.47-.68-3.24.52-1.13,1.76-2.23,3.61-1.92,5.86.17,1.26.68,2.59-1.01,3.27-1.55.62-2.78.26-3.83-1.05-.99-1.23-3.06-.76-3.89-2.38-.15-.29-.65.03-.9.28-.55.56-.97,1.18-2,.73-.59-.26-.62.36-.56.89.18,1.62-.56,2.28-2.18,1.92-1.1-.24-1.58.18-1.7,1.33-.14,1.34-.91,2.25-2.37,2.32-1.26.06-1.6-.71-2.1-1.79-.55-1.18-2.19-1.38-3.45-1.49-1.16-.1-1.89.86-2.21,1.92-.2.65-.31,1.42-.17,2.08.82,4.04-1.51,6.44-4.4,8.49-.98.7-2.14,1.19-3.27,1.61-1.22.45-2.48.69-3.39-.71-.33-.5-.94-.85-1.51-.74-2.1.39-4.28.52-6.17,1.7-2.96,1.84-5.96,3.59-9.43,4.33-.79.17-1.26.73-1.65,1.44-.77,1.39-1.92,2.32-3.59,2.41-1.18.06-1.77.72-1.97,1.86-.18,1.03-.43,2.06-.69,3.08-.3,1.19-.92,2.12-2.14,2.59-1.12.44-1.76,1.24-1.91,2.49-.18,1.5-1.15,2.47-2.55,2.81-3.34.81-6.71,1.54-10.08,2.22-1.15.23-1.95-.52-2.72-1.3-1.72-1.75-6.69-1.57-8.27.32-.31.37-.38.96-.52,1.47-1.33,4.77-3.66,8.93-7.43,12.21-.82.71-1.77,1.1-2.79,1.39-1.23.35-2.15.96-2.04,2.43.08,1.19-.75,1.26-1.51,1.07-2.36-.59-4.53-1.71-6.76-2.64-.62-.26-.93-.85-.88-1.58.03-.47-.01-.94,0-1.41.01-.59-.55-.73-.85-1.03-1.57-1.54-2.11-4.5-5.28-3.87-.73.14-1.28-.03-1.58-.9-.16-.48-.79-1.11-1.23-1.12-3.39-.09-4.75-3.8-7.86-4.34-.77-.13-.17-.61-.05-.92.71-1.78,1.48-3.55,2.14-5.35,1.78-4.87.61-9.46-1.43-13.94-.31-.68-.75-1.3-1.04-1.99-.75-1.8-.31-3.05,1.44-3.87,1.44-.67,2.14-1.95,2.83-3.21.52-.95.23-1.83-.56-2.68-1.34-1.45-1.25-2.71.3-4.28-1.88-.19-2.27-1.36-2.37-2.92-.07-1.07-.97-1.48-2.05-1.42-2.84.17-5.56-.36-8.28-1.19-1.76-.53-2.59-1.56-2.82-3.3-.22-1.66-.49-3.31-1.46-4.77-.52-.79-.97-1.6-2.06-1.46-.73.09-.81-.39-1.02-.86-.71-1.62-.55-3.32-.47-5.01.02-.44.14-.87.88-.7.76.18,1.44-.35,2.35-.82-1.23,5.05,2.88,5.02,5.65,6.31.74-2.68,3.25-4.16,6.56-3.83.76.08,1.54.37,2.02-.49.49-.88-.03-1.45-.56-2.15-1.23-1.63-2.22-3.43-2.88-5.39-.51-1.5-.43-2.68,1.21-3.62,2.48-1.42,2.97-3.65,1.43-5.26-.35-.36-.44-.64-1.04-.17-.99.76-1.92.4-2.56-.67-.98-1.65-1.94-3.33-2.2-5.27-.32-2.33-1.47-4.25-3.04-5.89-.59-.62-.66-1.01-.44-1.78.7-2.5.76-5.04.31-7.6-.31-1.76-.47-3.15,1.57-4.54,1.4-.96,2.68-1.68,4.27-2,.98-.2,1.82-.68,2.48-1.35.5-.51,1.07-.71,1.67-.8,2.78-.43,3.93-2.58,5.02-4.75.34-.69.19-1.54-.4-2.13-1.68-1.67-1.57-2.75-.37-5.01.56-1.06.71-1.9.56-3.05-.31-2.36-.41-4.76-.56-7.14-.04-.7.1-1.39.45-2.02.45-.8,1.07-1.54.29-2.53-.17-.21-.03-.87.19-1.15.97-1.2.86-2.21.05-3.54-.92-1.52-.8-3.36-.52-5.12.58-3.59-.01-6.96-2.05-9.97-.95-1.4-2.34-2.23-4.17-1.77-1.02.26-1.96,0-2.86-.46-2.25-1.17-4.67-1.82-7.12-2.38-1.08-.25-2.08-.3-2.95.52-.16.15-.4.39-.54.35-2.9-.79-5.58.85-8.42.78-1.41-.03-2.66.78-3.18,2.09-2.03,5.08-7.96,4.49-11.55,2.21-.88-.56-1.81-1.15-2.53-1.85-1.39-1.35-2.69-.69-4.01-.16-1.29.52-1.85,1.65-1.59,2.98.35,1.75-.41,2.03-1.87,1.72-2.04-.42-4.16-.46-6.05-1.55-1.81-1.05-2.53-2.13-2.32-4.22.12-1.27-.47-1.75-1.6-1.59-.94.13-1.8.24-2.69-.27-.97-.55-1.18.7-1.99.92-1.91-3.48-5.61-4.41-9.01-5.67-1.67-.62-2.33-1.58-2.22-3.21.22-3.24-.67-6.45.06-9.75.35-1.59-.38-3.44-.73-5.15-.63-3.05-.59-6.04.71-8.92.87-1.93.88-3.94.68-6-.14-1.47.29-2.71,1.49-3.72,1.23-1.03,1.71-2.29,1.13-4-.49-1.43-.42-2.81,1.64-3.31,1.49-.36,3.33-3.85,3.16-5.39-.03-.29-.1-.61-.03-.87.57-2.1.41-3.84-1.71-5.15-.98-.6-.4-1.85.19-2.47,1.18-1.23,1.55-2.6,1.53-4.23-.04-2.8.06-2.86,2.74-3.6.7-.19,1.14-.43.85-1.45-.52-1.8.24-2.75,2.08-3.04,2.71-.43,5.15-4.2,4.31-6.88-.47-1.5-.18-2.41,1.27-3.09,1.42-.67,2.16-2.25,3.66-2.88,1.33-.56,2.58-.96,3.64.37.6.75,1.24.43,1.89.2,2.51-.9,5.03-1.78,7.53-2.73,1.47-.56,2.78-1.48,3.74-2.72,1.46-1.89,1.47-3.3-.28-4.82-1.99-1.72-2.58-3.79-2.43-6.24,0-.12.04-.25,0-.35-1.27-2.65.29-3.51,2.48-4.3,2.95-1.08,5.71-2.69,8.73-3.58,2.71-.8,5.49-1.4,8,.7.54.45,1.08.24,1.61-.12,1.03-.7,2.04-1.53,2.3-2.72.4-1.86,1.43-1.41,2.54-.94.37.16.71.41,1.02.67,2.02,1.67,2.05,1.65,3.6-.56.41-.58.81-1.14,1.03-1.81Z" style="fill:#fff; stroke:#000; stroke-miterlimit:10; stroke-width:2.83px;"/></svg>